<svg width="163" height="25" viewBox="0 0 163 25" fill="none" xmlns="http://www.w3.org/2000/svg">
<path d="M24.5856 5.33385C24.6051 5.19291 24.6713 5.06278 24.7734 4.96463C24.8754 4.86648 25.0074 4.80607 25.1477 4.79321H27.9227C27.9874 4.79585 28.0508 4.81262 28.1085 4.84236C28.1661 4.87211 28.2167 4.91412 28.2567 4.96551C28.2968 5.01689 28.3253 5.07643 28.3403 5.14002C28.3554 5.20361 28.3566 5.26974 28.3439 5.33385L26.7164 16.9143C26.3809 19.3201 27.5016 21.1619 29.4646 21.1619C31.4544 21.1619 33.1087 19.3201 33.446 16.9431L35.0718 5.33385C35.0867 5.19135 35.1512 5.05882 35.2538 4.95983C35.3564 4.86084 35.4905 4.8018 35.6321 4.79321H38.4089C38.4727 4.79835 38.5346 4.81677 38.5909 4.84731C38.6472 4.87785 38.6966 4.91985 38.736 4.97066C38.7755 5.02146 38.804 5.07997 38.8199 5.14248C38.8358 5.205 38.8386 5.27016 38.8283 5.33385L37.174 17.1197C36.5851 21.4232 33.3622 24.9049 28.9649 24.9049C25.0674 24.9049 22.3477 21.4232 22.9366 17.1197L24.5856 5.33385Z" fill="white"/>
<path d="M46.6505 5.33385C46.6655 5.19135 46.73 5.05882 46.8326 4.95983C46.9352 4.86084 47.0692 4.8018 47.2109 4.79321H49.9306C49.9931 4.79891 50.0538 4.81798 50.1084 4.84915C50.1631 4.88033 50.2106 4.9229 50.2477 4.97404C50.2849 5.02517 50.3108 5.08371 50.3238 5.14574C50.3368 5.20778 50.3366 5.2719 50.3232 5.33385L48.1085 21.2178H54.3046C54.5848 21.2178 54.7257 21.4719 54.6972 21.7584L54.3885 24.0813C54.3739 24.224 54.3095 24.3567 54.2068 24.4558C54.1041 24.5548 53.9699 24.6137 53.8281 24.622H44.4644C44.3996 24.6196 44.3361 24.6031 44.2783 24.5734C44.2205 24.5438 44.1698 24.5017 44.1297 24.4503C44.0896 24.3988 44.0611 24.3392 44.0462 24.2754C44.0312 24.2117 44.0302 24.1455 44.0433 24.0813L46.6505 5.33385Z" fill="white"/>
<path d="M63.8641 8.19367H60.1628C60.0982 8.19108 60.0349 8.17432 59.9773 8.14456C59.9197 8.1148 59.8692 8.07275 59.8293 8.02132C59.7894 7.96989 59.7611 7.91031 59.7462 7.84671C59.7314 7.78312 59.7305 7.71703 59.7435 7.65303L60.079 5.3319C60.0924 5.1931 60.1531 5.06332 60.2507 4.96471C60.3484 4.86611 60.4769 4.8048 60.6143 4.79126H71.7376C71.8023 4.7939 71.8657 4.81067 71.9233 4.84041C71.981 4.87016 72.0316 4.91217 72.0716 4.96355C72.1116 5.01494 72.1402 5.07448 72.1552 5.13807C72.1703 5.20166 72.1715 5.26778 72.1588 5.3319L71.8269 7.65483C71.8119 7.79733 71.7474 7.92986 71.6448 8.02886C71.5422 8.12785 71.4081 8.18688 71.2665 8.19547H67.5653L65.3506 24.0794C65.3311 24.22 65.2652 24.35 65.1635 24.4481C65.0618 24.5462 64.9303 24.6068 64.7903 24.62H62.0705C62.0067 24.6151 61.9445 24.5969 61.888 24.5664C61.8315 24.536 61.7819 24.494 61.7423 24.4432C61.7027 24.3924 61.674 24.3338 61.658 24.2711C61.642 24.2085 61.6391 24.1432 61.6494 24.0794L63.8641 8.19367Z" fill="white"/>
<path d="M78.1357 5.33385C78.1487 5.19493 78.2093 5.06496 78.3071 4.96629C78.4048 4.86762 78.5335 4.80642 78.671 4.79321H81.4193C81.4827 4.79682 81.5444 4.81454 81.6002 4.84511C81.656 4.87567 81.7044 4.91832 81.7419 4.97C81.7794 5.02168 81.8052 5.0811 81.8173 5.144C81.8294 5.20691 81.8275 5.27174 81.8119 5.33385L79.2046 24.0759C79.1909 24.2146 79.1301 24.3442 79.0325 24.4427C78.9349 24.5413 78.8066 24.6027 78.6693 24.6166H75.921C75.8575 24.6133 75.7956 24.5958 75.7396 24.5653C75.6837 24.5348 75.6352 24.4922 75.5976 24.4404C75.56 24.3886 75.5343 24.3291 75.5223 24.266C75.5103 24.203 75.5124 24.1381 75.5284 24.0759L78.1357 5.33385Z" fill="white"/>
<path d="M91.7035 4.93727C91.73 4.81465 91.7979 4.70515 91.8955 4.62755C91.9932 4.54995 92.1146 4.50909 92.2389 4.51197H92.6315C92.7189 4.50903 92.8047 4.53536 92.8758 4.58687C92.9468 4.63837 92.9989 4.71215 93.0241 4.7967L96.8359 17.6224H96.9002L104.526 4.7967C104.57 4.7099 104.637 4.63691 104.72 4.58551C104.802 4.5341 104.896 4.50619 104.993 4.50476H105.414C105.52 4.51371 105.619 4.56222 105.692 4.64085C105.765 4.71948 105.806 4.82258 105.807 4.93006L106.059 23.9677C106.059 24.3642 105.807 24.6183 105.498 24.6183H102.807C102.751 24.6195 102.696 24.6093 102.645 24.5884C102.593 24.5674 102.546 24.5362 102.507 24.4964C102.467 24.4567 102.436 24.4093 102.416 24.3572C102.395 24.305 102.385 24.2491 102.386 24.193L102.611 14.0254H102.527L96.6664 24.5858C96.6239 24.6777 96.5567 24.7556 96.4725 24.8107C96.3882 24.8659 96.2903 24.896 96.1899 24.8976H95.742C95.6509 24.8997 95.5619 24.8698 95.4903 24.8129C95.4186 24.756 95.3688 24.6757 95.3494 24.5858L92.4941 14.0254H92.4387L89.7476 24.1893C89.7211 24.312 89.6532 24.4215 89.5555 24.4991C89.4578 24.5767 89.3365 24.6175 89.2122 24.6146H86.5496C86.2409 24.6146 86.0446 24.3605 86.157 23.9641L91.7035 4.93727Z" fill="white"/>
<path d="M110.601 23.8794L121.142 4.82374C121.182 4.72918 121.248 4.64851 121.333 4.59178C121.418 4.53506 121.517 4.50479 121.619 4.50476H121.872C121.962 4.50791 122.048 4.53982 122.119 4.59587C122.189 4.65192 122.24 4.7292 122.265 4.81653L127.417 23.8794C127.445 23.9642 127.453 24.0547 127.439 24.1433C127.426 24.2318 127.391 24.3157 127.339 24.3878C127.286 24.46 127.217 24.5183 127.138 24.5578C127.058 24.5973 126.97 24.6168 126.881 24.6147H124.451C124.03 24.6147 123.807 24.4741 123.723 24.0488L123.021 20.9041H116.04L114.414 24.047C114.332 24.2156 114.205 24.3578 114.048 24.4578C113.89 24.5577 113.708 24.6114 113.522 24.6129H110.938C110.545 24.6147 110.404 24.247 110.601 23.8794ZM122.124 17.8405L120.814 11.6754H120.757L117.694 17.8405H122.124Z" fill="white"/>
<path d="M136.673 8.19367H132.974C132.909 8.19103 132.846 8.17426 132.788 8.14452C132.73 8.11477 132.68 8.07276 132.64 8.02137C132.6 7.96999 132.571 7.91045 132.556 7.84686C132.541 7.78327 132.54 7.71714 132.553 7.65303L132.89 5.3319C132.903 5.19298 132.964 5.06301 133.061 4.96433C133.159 4.86566 133.288 4.80446 133.425 4.79126H144.549C144.613 4.7936 144.677 4.81016 144.735 4.83982C144.793 4.86947 144.843 4.91149 144.883 4.96295C144.923 5.01441 144.952 5.07408 144.967 5.1378C144.982 5.20151 144.983 5.26775 144.97 5.3319L144.632 7.65303C144.618 7.79567 144.553 7.9284 144.451 8.02746C144.348 8.12652 144.214 8.18544 144.072 8.19367H140.374L138.16 24.0776C138.14 24.2182 138.074 24.3482 137.973 24.4463C137.871 24.5444 137.739 24.605 137.599 24.6182H134.88C134.816 24.6131 134.754 24.5946 134.698 24.5641C134.641 24.5336 134.592 24.4916 134.552 24.4409C134.513 24.3901 134.484 24.3316 134.468 24.2691C134.452 24.2066 134.449 24.1414 134.459 24.0776L136.673 8.19367Z" fill="white"/>
<path d="M150.945 5.33385C150.958 5.19506 151.019 5.06527 151.117 4.96667C151.214 4.86806 151.343 4.80675 151.48 4.79321H161.859C161.924 4.79555 161.988 4.81212 162.045 4.84177C162.103 4.87142 162.154 4.91344 162.194 4.9649C162.234 5.01636 162.263 5.07603 162.278 5.13975C162.292 5.20347 162.293 5.2697 162.28 5.33385L161.943 7.65498C161.929 7.79762 161.864 7.93035 161.761 8.02941C161.659 8.12847 161.525 8.18739 161.383 8.19562H154.196L153.552 12.8379H159.497C159.56 12.8433 159.622 12.8619 159.678 12.8925C159.734 12.9231 159.784 12.9651 159.823 13.0159C159.862 13.0666 159.891 13.125 159.907 13.1874C159.923 13.2498 159.926 13.3149 159.916 13.3785L159.58 15.7213C159.561 15.8625 159.495 15.993 159.393 16.0912C159.291 16.1895 159.159 16.2497 159.018 16.2619H153.076L152.374 21.2178H159.58C159.861 21.2178 160 21.4719 159.971 21.7584L159.664 24.0813C159.649 24.2238 159.585 24.3564 159.482 24.4554C159.38 24.5543 159.246 24.6134 159.104 24.622H148.73C148.666 24.6215 148.602 24.6058 148.545 24.5761C148.487 24.5464 148.438 24.5036 148.399 24.4511C148.361 24.3986 148.336 24.3378 148.325 24.2736C148.314 24.2094 148.319 24.1436 148.338 24.0813L150.945 5.33385Z" fill="white"/>
<path d="M4.41849 8.77221C4.02889 8.77089 3.64842 8.65307 3.32507 8.4336C3.00172 8.21414 2.75 7.90287 2.60166 7.53908C2.45332 7.17529 2.41502 6.77527 2.49158 6.38952C2.56815 6.00377 2.75615 5.64956 3.03187 5.3716L7.76636 0.583361C8.13624 0.209841 8.63791 -3.93567e-09 9.16101 0C9.6841 3.93567e-09 10.1858 0.209841 10.5557 0.583361C10.9255 0.956882 11.1333 1.46348 11.1333 1.99172C11.1333 2.51996 10.9255 3.02656 10.5557 3.40008L5.81403 8.19012C5.44363 8.56326 4.94168 8.77263 4.41849 8.77221V8.77221Z" fill="white"/>
<path d="M7.427 22.3673C7.03718 22.3665 6.65631 22.2492 6.33242 22.0301C6.00854 21.8111 5.75614 21.5001 5.60706 21.1363C5.45799 20.7726 5.41891 20.3724 5.49475 19.9863C5.5706 19.6002 5.75797 19.2454 6.03324 18.9666L12.058 12.8827C12.4279 12.5092 12.9295 12.2993 13.4526 12.2993C13.9757 12.2993 14.4774 12.5092 14.8473 12.8827C15.2172 13.2562 15.425 13.7628 15.425 14.291C15.425 14.8193 15.2172 15.3259 14.8473 15.6994L8.82254 21.7834C8.63964 21.9689 8.42214 22.1161 8.18261 22.2163C7.94309 22.3165 7.68627 22.3678 7.427 22.3673V22.3673Z" fill="white"/>
<path d="M1.97175 19.3075C1.58178 19.3071 1.20066 19.1901 0.876503 18.9712C0.552344 18.7522 0.299671 18.4413 0.150373 18.0775C0.00107506 17.7137 -0.0381554 17.3133 0.0376327 16.927C0.113421 16.5407 0.300831 16.1858 0.576209 15.9069L14.5834 1.76207C14.9533 1.38855 15.4549 1.17871 15.978 1.17871C16.5011 1.17871 17.0028 1.38855 17.3727 1.76207C17.7426 2.13559 17.9504 2.64219 17.9504 3.17043C17.9504 3.69867 17.7426 4.20527 17.3727 4.57879L3.36551 18.7237C3.18281 18.909 2.96561 19.056 2.7264 19.1562C2.4872 19.2564 2.23072 19.3079 1.97175 19.3075V19.3075Z" fill="white"/>
</svg>
